# xmcd CD database file
#
# Track frame offsets:
#	150
#	16122
#	32719
#	47743
#	69392
#	84573
#	101732
#	119194
#	133802
#	146144
#
# Disc length: 2111 seconds
#
# Revision: 3
# Processed by: cddbd v1.5PL3 Copyright (c) Steve Scherf et al.
# Submitted via: CDex 1.51
#
DISCID=90083d0a
DTITLE=เทวัญ ทรัพย์แสนยากร - ฟังสบาย mood II
DYEAR=2002
DGENRE=Jazz
TTITLE0=รักคุณเข้าแล้ว (I LOVE YOU)
TTITLE1=ที่รัก (DARLING)
TTITLE2=จูบเย้ยจันทร์ (KISSING MOON)
TTITLE3=หักใจไม่คิด (HOPELESS PRAYER)
TTITLE4=รักเอ่ยรักข้า (OH! MY LOVE)
TTITLE5=ถ้าจะรักฉัน (IF I LOVE YOU)
TTITLE6=หยาดเพชร (DIAMOND IN MY HEART)
TTITLE7=เพียงคำเดียว (WAITING FOR THAT WORD)
TTITLE8=ยามชัง (UNLOVED MOMENT)
TTITLE9=บ้านทรายทอง (SAI THONG HOUSE)
EXTD=YEAR: 2002
EXTT0=
EXTT1=
EXTT2=
EXTT3=
EXTT4=
EXTT5=
EXTT6=
EXTT7=
EXTT8=
EXTT9=
PLAYORDER=
